# xmcd
#
# Track frame offsets:
#	150
#	23156
#	43619
#	63179
#	85526
#	104950
#	115470
#	134712
#	162072
#	184958
#	203905
#	217833
#	235757
#	254193
#
# Disc length: 3728 seconds
#
# Revision: 1
# Processed by: cddbd v1.5.2PL0 Copyright (c) Steve Scherf et al.
# Submitted via: EasyCDDAExtractor 11.1.0.1
#
DISCID=cc0e8e0e
DTITLE=Paul Jones - Suddenly I Like It
DYEAR=2015
DGENRE=Blues
TTITLE0=Are You Lonely For Me Baby
TTITLE1=Lonely Nights
TTITLE2=Sit BAck Down
TTITLE3=Beggar For The Blues
TTITLE4=Brother Where Are You
TTITLE5=Mountain Boogie
TTITLE6=Suddenly I Like It
TTITLE7=Dont Go To Strangers
TTITLE8=Remember Me
TTITLE9=Soul To Soul
TTITLE10=Trouble In Mind
TTITLE11=Straighten Up And Fly Rigfht
TTITLE12=Im On My Way To A Better Place
TTITLE13=Above And Beyond
EXTD=
EXTT0=
EXTT1=
EXTT2=
EXTT3=
EXTT4=
EXTT5=
EXTT6=
EXTT7=
EXTT8=
EXTT9=
EXTT10=
EXTT11=
EXTT12=
EXTT13=
PLAYORDER=
